<svg width="201" height="167" viewBox="0 0 201 167" fill="none" xmlns="http://www.w3.org/2000/svg">
<g clip-path="url(#clip0_64_2)">
<path d="M55.2135 30.3595C46.7661 18.5912 38.8823 12.1064 28.5815 6.63329C26.2458 15.3117 24.977 24.5637 24.9603 34.1682C24.9478 41.3131 25.6288 48.2652 26.9276 54.9333C27.5464 58.1111 28.3056 61.2246 29.1968 64.2633C17.4442 80.9157 7.66235 99.627 0.28377 119.882C9.60337 103.319 20.6077 88.2281 33.0018 74.9613C42.7724 64.5025 53.4066 55.1771 64.7601 47.1576C62.4622 41.9327 59.5335 36.3779 55.2135 30.3595Z" fill="white"/>
<path fill-rule="evenodd" clip-rule="evenodd" d="M46.8576 99.0084C46.2286 97.5977 43.4335 96.8584 41.8993 97.3308C43.3804 96.222 44.9275 95.2273 46.5318 94.3575C50.0138 92.4699 53.7653 91.17 57.6973 90.5638C57.1333 89.1406 54.5946 86.9376 53.3751 86.1569C58.1569 85.6122 64.9873 86.8068 70.2723 89.2791C72.9863 90.5485 74.4667 91.4469 76.931 93.3065C86.2489 100.338 91.1574 109.012 93.8369 120.317C92.0348 120.469 90.6071 120.773 88.6497 121.566C79.7098 125.188 74.5795 134.588 74.5612 145.056C74.5439 154.992 79.2798 163.601 81.65 166.664C69.6332 160.527 56.4079 157.12 42.5164 157.096C37.3976 157.087 33.287 157.371 27.4535 158.415C21.1145 159.55 15.2353 161.447 11.4749 162.904C12.9725 161.321 17.5106 156.196 19.5921 151.667C20.0228 150.73 20.3484 149.818 20.52 148.968C19.9852 149.183 19.4453 149.385 18.9005 149.573C15.404 150.782 12.2295 151.426 7.88665 151.42C6.09109 151.417 4.37985 151.206 3.12912 151.052C2.92881 151.028 2.7403 151.004 2.56515 150.984C3.20341 150.67 3.87347 150.299 4.56435 149.883C8.71056 147.388 13.6067 143.268 16.8805 139.967C19.2344 137.594 20.7496 135.645 20.5443 135.027C20.2913 134.265 18.6724 134.283 16.5053 134.69C14.9837 134.975 13.1918 135.451 11.4126 135.983C13.0919 133.07 14.8822 130.257 16.776 127.551C20.4777 122.261 24.5754 117.383 29.0141 112.981C34.4789 107.561 40.4609 102.863 46.8576 99.0084ZM69.1007 120.856C64.7665 120.849 61.26 116.636 61.2691 111.447C61.2782 106.258 64.7993 102.058 69.1335 102.065C73.468 102.073 76.9744 106.285 76.9653 111.474C76.9563 116.664 73.4351 120.864 69.1007 120.856Z" fill="white"/>
<path d="M145.554 30.5173C154.042 18.7785 161.949 12.3213 172.269 6.88421C174.574 15.5708 175.81 24.8271 175.794 34.4316C175.781 41.5765 175.076 48.5262 173.754 55.1897C173.124 58.3653 172.354 61.4761 171.452 64.5117C183.146 81.205 192.863 99.9504 200.171 120.231C190.909 103.636 179.957 88.5064 167.61 75.1964C157.876 64.7035 147.274 55.341 135.949 47.282C138.265 42.0651 141.213 36.5205 145.554 30.5173Z" fill="white"/>
<path fill-rule="evenodd" clip-rule="evenodd" d="M153.67 99.1949C154.304 97.7863 157.102 97.0568 158.634 97.5346C157.157 96.4206 155.613 95.4205 154.012 94.5451C150.537 92.6453 146.79 91.3324 142.86 90.7124C143.429 89.2912 145.975 87.0971 147.198 86.3207C142.417 85.7592 135.583 86.93 130.289 89.3838C127.571 90.6437 126.088 91.537 123.617 93.3879C114.274 100.387 109.335 109.044 106.616 120.339C108.418 120.498 109.845 120.806 111.799 121.606C120.726 125.26 125.824 134.678 125.806 145.146C125.788 155.081 121.023 163.674 118.642 166.728C130.68 160.633 143.917 157.273 157.808 157.297C162.927 157.306 167.037 157.604 172.867 158.669C179.201 159.826 185.074 161.743 188.829 163.213C187.337 161.625 182.817 156.485 180.752 151.948C180.324 151.009 180.002 150.096 179.833 149.246C180.367 149.463 180.906 149.667 181.45 149.857C184.943 151.078 188.115 151.733 192.458 151.742C194.253 151.746 195.965 151.541 197.217 151.391C197.417 151.367 197.606 151.345 197.781 151.325C197.144 151.008 196.475 150.635 195.785 150.217C191.648 147.707 186.766 143.57 183.504 140.258C181.158 137.877 179.65 135.922 179.857 135.305C180.113 134.544 181.732 134.568 183.898 134.982C185.418 135.272 187.208 135.755 188.986 136.293C187.316 133.374 185.536 130.555 183.652 127.842C179.969 122.54 175.888 117.647 171.464 113.229C166.019 107.791 160.053 103.072 153.67 99.1949ZM131.351 120.965C135.685 120.972 139.206 116.772 139.215 111.583C139.224 106.394 135.718 102.181 131.383 102.174C127.049 102.166 123.528 106.367 123.519 111.556C123.51 116.745 127.016 120.957 131.351 120.965Z" fill="white"/>
<path fill-rule="evenodd" clip-rule="evenodd" d="M95.1608 137.615C96.6831 136.735 98.2091 136.189 100.195 136.192C102.182 136.196 103.712 136.747 105.232 137.633C108.776 139.699 111.687 142.883 111.677 148.464C111.675 149.806 111.353 150.971 110.798 152.066C110.385 152.882 109.368 154.301 108.294 155.556C106.475 157.68 105.487 158.454 100.151 161.948C94.8275 158.436 93.8477 157.658 92.0366 155.527C90.9667 154.269 89.9543 152.846 89.5441 152.029C88.9936 150.932 88.6751 149.765 88.6775 148.424C88.6872 142.843 91.6089 139.669 95.1608 137.615ZM94.4287 145.933C96.5001 144.7 98.1232 144.189 100.181 144.193C102.239 144.197 103.868 144.713 105.935 145.953C106.144 146.079 106.289 146.204 106.538 146.204C107.084 146.205 107.399 145.581 107.246 145.006C107.057 144.295 106.649 143.593 106.044 143.078C104.261 141.558 102.383 140.696 100.187 140.693C97.9922 140.689 96.1182 141.544 94.3292 143.058C93.723 143.571 93.312 144.271 93.1207 144.981C92.9658 145.556 93.2783 146.181 93.8247 146.182C94.0741 146.182 94.2194 146.058 94.4287 145.933Z" fill="white"/>
<path d="M87.7946 57.2807C88.2416 59.5492 88.1453 63.1268 87.7811 65.0091C84.1341 56.3031 79.7449 48.1197 74.713 40.5774C71.3061 35.4713 68.2069 31.3209 63.5024 26.0235C52.3375 13.4514 42.9246 6.46175 30.7838 0.0532227C45.4774 2.90894 60.6115 11.9839 71.7515 22.6277C80.8215 19.4945 90.3677 17.9095 100.404 17.9271C110.439 17.9446 119.984 19.5628 129.043 22.7277C140.22 12.1229 155.386 3.10082 170.089 0.296426C157.926 6.66252 148.489 13.6192 137.28 26.1523C132.557 31.4332 129.444 35.5728 126.019 40.667C120.961 48.1916 116.543 56.3597 112.865 65.0529C112.508 63.1693 112.424 59.5915 112.879 57.3245C110.06 61.002 100.267 96.312 100.222 121.69C100.266 96.312 90.6005 60.968 87.7946 57.2807Z" fill="white"/>
</g>
<defs>
<clipPath id="clip0_64_2">
<rect width="200.089" height="166.521" fill="white" transform="translate(0.290771) rotate(0.100028)"/>
</clipPath>
</defs>
</svg>
