<svg width="230" height="167" viewBox="0 0 230 167" fill="none" xmlns="http://www.w3.org/2000/svg">
<g clip-path="url(#clip0_145_4)">
<path d="M63.1305 30.3734C53.4636 18.6029 44.4429 12.1161 32.6573 6.64044C29.9874 15.3183 28.5382 24.57 28.5215 34.1745C28.509 41.3194 29.2898 48.2716 30.7774 54.9401C31.486 58.118 32.3553 61.2317 33.3757 64.2706C19.9347 80.92 8.74894 99.629 0.312859 119.882C10.9704 103.322 23.5557 88.2333 37.7313 74.9696C48.9063 64.5132 61.0696 55.1905 74.0561 47.1739C71.426 41.9484 68.0741 36.3928 63.1305 30.3734Z" fill="white"/>
<path fill-rule="evenodd" clip-rule="evenodd" d="M53.5885 99.0201C52.8686 97.6092 49.6707 96.8693 47.9157 97.3413C49.6099 96.2328 51.3795 95.2385 53.2146 94.3691C57.1976 92.4823 61.489 91.1834 65.987 90.5782C65.3416 89.1549 62.4366 86.9513 61.0414 86.1702C66.5116 85.6267 74.326 86.823 80.3727 89.2966C83.4778 90.5667 85.1716 91.4655 87.9913 93.3257C98.6529 100.359 104.27 109.035 107.339 120.34C105.277 120.492 103.644 120.796 101.405 121.588C91.1783 125.208 85.3116 134.607 85.2933 145.075C85.276 155.01 90.6961 163.621 93.4084 166.684C79.6595 160.544 64.5288 157.134 48.6368 157.106C42.7807 157.096 38.0782 157.379 31.4049 158.422C24.1533 159.556 17.428 161.451 13.1264 162.907C14.8393 161.324 20.0296 156.201 22.4097 151.672C22.9023 150.735 23.2745 149.823 23.4706 148.973C22.8588 149.188 22.2412 149.39 21.618 149.578C17.6183 150.786 13.9868 151.429 9.01853 151.422C6.9644 151.419 5.00666 151.207 3.57578 151.053C3.34661 151.028 3.13095 151.005 2.93057 150.984C3.66067 150.67 4.42713 150.3 5.2174 149.884C9.96008 147.39 15.5603 143.272 19.3047 139.972C21.997 137.599 23.73 135.65 23.4949 135.032C23.2052 134.27 21.3532 134.288 18.8741 134.694C17.1335 134.979 15.0837 135.454 13.0484 135.985C14.9688 133.073 17.0161 130.26 19.182 127.555C23.4155 122.266 28.1021 117.389 33.1789 112.988C39.4293 107.57 46.2716 102.873 53.5885 99.0201ZM79.0403 120.873C74.0819 120.865 70.0695 116.651 70.0785 111.462C70.0876 106.273 74.1147 102.074 79.0731 102.083C84.0318 102.091 88.0442 106.305 88.0352 111.494C88.0261 116.683 83.999 120.882 79.0403 120.873Z" fill="white"/>
<path d="M166.481 30.5538C176.188 18.8171 185.232 12.3619 197.037 6.92741C199.676 15.6145 201.093 24.8712 201.076 34.4757C201.064 41.6206 200.259 48.5701 198.748 55.2333C198.028 58.4087 197.148 61.5194 196.117 64.5547C209.5 81.251 220.62 99.9988 228.985 120.281C218.386 103.684 205.853 88.5516 191.724 75.2384C180.586 64.7431 168.455 55.378 155.497 47.3161C158.145 42.0998 161.516 36.5559 166.481 30.5538Z" fill="white"/>
<path fill-rule="evenodd" clip-rule="evenodd" d="M175.783 99.2335C176.508 97.825 179.708 97.0963 181.462 97.5744C179.771 96.4601 178.005 95.4596 176.173 94.5838C172.197 92.6831 167.91 91.3692 163.414 90.7483C164.064 89.3272 166.977 87.1338 168.375 86.3576C162.907 85.795 155.088 86.964 149.033 89.4165C145.923 90.6757 144.227 91.5686 141.4 93.4189C130.714 100.415 125.066 109.071 121.958 120.366C124.02 120.525 125.652 120.834 127.888 121.635C138.102 125.29 143.936 134.709 143.918 145.177C143.9 155.113 138.45 163.704 135.727 166.758C149.497 160.666 164.64 157.309 180.532 157.337C186.388 157.347 191.09 157.646 197.759 158.713C205.006 159.871 211.725 161.79 216.022 163.261C214.315 161.673 209.142 156.531 206.778 151.994C206.288 151.055 205.919 150.141 205.726 149.291C206.337 149.508 206.954 149.712 207.577 149.903C211.572 151.124 215.201 151.78 220.17 151.79C222.224 151.794 224.182 151.59 225.614 151.441C225.843 151.417 226.059 151.394 226.259 151.374C225.53 151.058 224.765 150.684 223.976 150.266C219.242 147.755 213.656 143.617 209.924 140.304C207.24 137.923 205.513 135.967 205.751 135.35C206.043 134.589 207.895 134.614 210.373 135.028C212.112 135.319 214.16 135.802 216.194 136.34C214.283 133.421 212.246 130.601 210.09 127.888C205.875 122.585 201.205 117.691 196.144 113.272C189.912 107.832 183.086 103.112 175.783 99.2335ZM150.255 120.998C155.214 121.006 159.24 116.807 159.249 111.618C159.259 106.429 155.246 102.215 150.288 102.207C145.329 102.198 141.302 106.398 141.293 111.587C141.284 116.776 145.296 120.989 150.255 120.998Z" fill="white"/>
<path fill-rule="evenodd" clip-rule="evenodd" d="M108.858 137.639C110.599 136.759 112.344 136.213 114.617 136.217C116.889 136.221 118.641 136.773 120.379 137.659C124.434 139.726 127.765 142.911 127.755 148.492C127.753 149.834 127.385 150.999 126.75 152.094C126.278 152.909 125.115 154.328 123.886 155.583C121.806 157.707 120.676 158.481 114.573 161.973C108.482 158.459 107.36 157.681 105.288 155.55C104.064 154.292 102.905 152.868 102.436 152.051C101.806 150.955 101.441 149.788 101.443 148.446C101.453 142.865 104.795 139.692 108.858 137.639ZM108.022 145.957C110.392 144.724 112.248 144.214 114.603 144.218C116.957 144.222 118.82 144.739 121.185 145.98C121.424 146.105 121.59 146.23 121.875 146.231C122.5 146.232 122.86 145.608 122.685 145.032C122.469 144.322 122.001 143.62 121.31 143.105C119.269 141.584 117.12 140.722 114.609 140.718C112.097 140.713 109.954 141.568 107.908 143.081C107.214 143.594 106.744 144.295 106.526 145.004C106.348 145.579 106.706 146.204 107.331 146.206C107.617 146.206 107.783 146.082 108.022 145.957Z" fill="white"/>
<path d="M100.41 57.3027C100.922 59.5714 100.813 63.1489 100.397 65.0312C96.2224 56.3243 91.1991 48.1397 85.4406 40.5962C81.5419 35.4892 77.9952 31.338 72.6119 26.0394C59.836 13.4645 49.0658 6.47249 35.175 0.0609131C51.9853 2.92033 69.3012 11.9991 82.0482 22.6457C92.4235 19.5147 103.344 17.9322 114.825 17.9523C126.306 17.9723 137.226 19.593 147.59 22.7601C160.374 12.1581 177.722 3.13984 194.542 0.33914C180.629 6.70218 169.834 13.6565 157.015 26.1867C151.613 31.4665 148.052 35.6053 144.135 40.6986C138.35 48.222 133.299 56.389 129.094 65.0813C128.684 63.1976 128.587 59.6197 129.107 57.3528C125.884 61.0297 114.689 96.3372 114.644 121.715C114.687 96.3372 103.621 60.9908 100.41 57.3027Z" fill="white"/>
</g>
<defs>
<clipPath id="clip0_145_4">
<rect width="228.904" height="166.521" fill="white" transform="translate(0.290717) rotate(0.100028)"/>
</clipPath>
</defs>
</svg>
