<svg width="683" height="683" viewBox="0 0 683 683" fill="none" xmlns="http://www.w3.org/2000/svg">
<g clip-path="url(#clip0_149_9)">
<path d="M298 2.00003C236.4 10 180 33.6 130.667 71.7334C115.067 83.8667 88.5333 110 75.6 126C38.8 171.6 14.4 225.467 4 284.133C0.26667 304.933 -1.2 354.933 1.2 377.733C12.1333 479.333 68.2667 571.333 154 627.467C198.533 656.667 246.933 674.267 300 680.8C325.2 683.867 375.333 682.8 397.733 678.8C458.133 668 510.4 644.4 556.667 607.067C572.667 594.133 598.8 567.6 610.933 552C649.467 502.133 672.667 446.133 680.667 383.6C683.333 362.933 683.333 320.267 680.667 298.667C668.4 199.733 612.667 110.4 528.667 55.2C484.8 26.4 436 8.53336 384 2.00003C363.733 -0.399975 317.2 -0.399975 298 2.00003ZM387.333 53.2C449.6 63.7334 503.2 91.2 547.333 135.333C592.267 180.267 620.533 236.267 630.267 300C633.067 318.667 633.467 360.4 630.933 378C622.667 435.467 600.4 486.267 565.333 528C555.6 539.6 553.333 541.6 553.333 538.533C553.333 535.6 540.8 512.267 532.8 500.667C522.4 485.333 500 462.933 484.667 452.533C462.267 437.333 438.133 426.933 411.6 421.067C398.667 418.133 395.2 418 341.333 418C287.733 418 284 418.133 271.2 420.933C229.467 430.267 200.4 446 171.2 475.2C153.867 492.667 143.333 507.2 133.333 527.467L127.333 539.6L117.333 527.867C90.1333 495.867 68.6667 453.467 58 410.667C49.7333 377.867 47.4667 332.4 52.4 300C62.2667 236.133 90.4 180.267 135.333 135.333C185.067 85.6 244.667 58 319.333 50.1334C331.867 48.8 371.867 50.6667 387.333 53.2ZM408.4 471.867C436 479.6 455.467 491.2 476 511.867C491.333 527.467 500.933 541.867 507.867 559.867C514.8 577.733 515.733 575.333 497.6 587.067C450.133 617.733 399.733 632.533 342.667 632.533C295.067 632.667 256.267 623.467 214 602.4C198.4 594.667 169.333 576.533 169.333 574.533C169.333 574 170.933 569.067 172.8 563.733C190 515.733 231.333 480.4 282.133 470C289.333 468.533 303.2 468.267 344.667 468.533C395.2 468.8 398.533 469.067 408.4 471.867Z" fill="white"/>
<path d="M317.333 141.333C296.4 145.733 277.733 155.333 261.6 170C246.667 183.467 233.733 204.667 227.2 226C223.733 237.067 223.467 239.867 223.467 260.667C223.333 286.933 225.2 296 235.333 316.667C251.333 349.6 279.333 371.867 315.467 380.933C328 384 354.667 384 367.2 380.933C403.333 371.867 431.333 349.6 447.333 316.667C457.333 296.133 459.333 286.933 459.2 260.667C459.2 239.867 458.933 237.067 455.467 226C436.667 164.667 377.6 128.4 317.333 141.333ZM358.8 191.467C381.333 198.133 398.667 215.2 406.8 238.667C411.333 251.733 411.067 270.533 406.133 284.533C395.867 314.4 370.667 333.333 341.333 333.333C312 333.333 286.8 314.4 276.533 284.533C273.467 275.733 272.8 271.867 272.933 260.667C272.933 245.467 275.733 235.067 283.467 222.4C288.8 213.733 301.733 201.2 309.733 197.067C324.8 189.333 344.133 187.2 358.8 191.467Z" fill="white"/>
<rect x="160" y="462" width="368" height="186" rx="77.5" fill="white"/>
<circle cx="338.5" cy="261.5" r="79.5" fill="white"/>
</g>
<defs>
<clipPath id="clip0_149_9">
<rect width="682.667" height="682.667" fill="white"/>
</clipPath>
</defs>
</svg>
